<?xml version="1.0" standalone="no"?>
<svg xmlns="http://www.w3.org/2000/svg" viewBox="0 0 95 69" width="95" height="69"><g fill="#ff5576" color="#ff5576" transform="translate(25.185 0) scale(0.9166667) "><svg width="48.0" height="46.0" x="0.0" y="0.0" viewBox="0 0 48 46"><path fill="currentColor" fill-rule="evenodd" d="M17.265 0L0 9.915v19.834l17.265 9.916 9.094-5.223 6.159 10.642L48 18.326H34.53V9.915L17.265 0zm4.969 21.326h20.563l-10.28 17.77-10.283-17.77z"></path></svg></g><path fill="#0b0cac" fill-rule="nonzero" d="M10.32 0.96L13.80 0.96L8.42 17.09Q7.99 18.19 6.89 18.19L6.89 18.19Q5.74 18.19 5.30 17.09L5.30 17.09L0 0.96L3.46 0.96L6.89 12.10L10.32 0.96ZM25.06 4.25L25.06 18.05L22.97 18.05L22.01 16.39L18.67 18.19Q15.89 18.19 14.93 16.18L14.93 16.18Q14.45 15.19 14.27 14.05Q14.09 12.91 14.09 11.68Q14.09 10.44 14.11 9.85Q14.14 9.26 14.23 8.48Q14.33 7.70 14.51 7.18Q14.69 6.65 15.02 6.08Q15.36 5.52 15.84 5.18L15.84 5.18Q16.92 4.44 18.65 4.44L18.65 4.44L21.94 4.44L25.06 4.25ZM19.56 14.90L21.94 13.68L21.94 7.25L19.56 7.25Q18.24 7.25 17.72 8.26Q17.21 9.26 17.21 11.27Q17.21 13.27 17.70 14.09Q18.19 14.90 19.56 14.90L19.56 14.90ZM35.71 4.39L35.71 4.39L34.85 7.46Q34.49 7.32 34.03 7.32L34.03 7.32Q32.83 7.32 31.08 8.35L31.08 8.35L31.08 18.05L27.96 18.05L27.96 4.34L30.29 4.34L31.01 5.54L34.32 4.18Q34.56 4.15 34.97 4.15Q35.38 4.15 35.71 4.39ZM48.07 11.93L48.07 11.93L40.08 11.93Q40.08 13.80 40.67 14.66Q41.26 15.53 43.03 15.53L43.03 15.53Q44.18 15.53 44.74 14.80Q45.29 14.06 45.29 13.39L45.29 13.39L48.10 13.39Q48.10 15.96 46.72 17.16Q45.34 18.36 43.07 18.36Q40.80 18.36 39.55 17.71L39.55 17.71Q36.98 16.39 36.98 10.70L36.98 10.70Q36.98 7.32 38.45 5.75Q39.91 4.18 42.91 4.18L42.91 4.18Q48.12 4.18 48.12 9.96L48.12 9.96Q48.12 10.58 48.07 11.93ZM40.15 9.79L40.15 9.79L45.29 9.79Q45.29 8.21 44.69 7.49Q44.09 6.77 42.85 6.77Q41.62 6.77 40.88 7.50Q40.15 8.23 40.15 9.79ZM53.95 0L53.95 18.05L50.83 18.07L50.83 0L53.95 0ZM66.74 4.25L66.74 18.05L64.66 18.05L63.70 16.39L60.36 18.19Q57.58 18.19 56.62 16.18L56.62 16.18Q56.14 15.19 55.96 14.05Q55.78 12.91 55.78 11.68Q55.78 10.44 55.80 9.85Q55.82 9.26 55.92 8.48Q56.02 7.70 56.20 7.18Q56.38 6.65 56.71 6.08Q57.05 5.52 57.53 5.18L57.53 5.18Q58.61 4.44 60.34 4.44L60.34 4.44L63.62 4.44L66.74 4.25ZM61.25 14.90L63.62 13.68L63.62 7.25L61.25 7.25Q59.93 7.25 59.41 8.26Q58.90 9.26 58.90 11.27Q58.90 13.27 59.39 14.09Q59.88 14.90 61.25 14.90L61.25 14.90ZM79.27 0.96L79.27 18.05L75.94 18.05L75.94 0.96L79.27 0.96ZM94.37 0.96L94.37 3.94L89.78 3.94L89.78 18.05L86.45 18.05L86.45 3.94L81.89 3.94L81.89 0.96L94.37 0.96Z" transform="translate(0, 50.167)"></path></svg>